<svg xmlns="http://www.w3.org/2000/svg" width="128" height="128" viewBox="0 0 128 128">
  <title>HANDSHAKE</title>
  <g>
    <path d="M79.513,57.645,92.569,70.7,94,72.13c1.994,1.994,2.443,5.105.82,7.106a5.127,5.127,0,0,1-7.627.029,4.95,4.95,0,1,1-6.971,6.971,5.128,5.128,0,0,1-.029,7.627c-2,1.623-5.113,1.174-7.106-.819l-1.429-1.43s2.018,3.9-.528,6.443c-3.486,3.486-6.443.528-6.443.528l-.859-.858-12.2-12.2L38.156,72.056a38.44,38.44,0,0,1-7.133-9.838l-.674-1.337,26.2-26.2.017.017Z" fill="#ef708b"/>
    <path d="M23.646,38.907H55.9a2.4,2.4,0,0,1,2.4,2.4v8a0,0,0,0,1,0,0H21.246a0,0,0,0,1,0,0v-8A2.4,2.4,0,0,1,23.646,38.907Z" transform="translate(-19.538 41.042) rotate(-45)" fill="#ffee85"/>
    <path d="M48.487,57.645,35.431,70.7,34,72.13c-1.994,1.994-2.443,5.105-.82,7.106a5.127,5.127,0,0,0,7.627.029,4.95,4.95,0,1,0,6.971,6.971,5.128,5.128,0,0,0,.029,7.627c2,1.623,5.113,1.174,7.106-.819l1.429-1.43s-2.018,3.9.528,6.443c3.486,3.486,6.443.528,6.443.528l.859-.858,12.2-12.2L89.844,72.056a38.44,38.44,0,0,0,7.133-9.838l.674-1.337-26.2-26.2-.017.017Z" fill="#f89cbb"/>
    <g>
      <path d="M69.827,78.132a1.749,1.749,0,0,0-2.475,0L55.1,90.383a1.75,1.75,0,1,0,2.475,2.474L69.827,80.606A1.75,1.75,0,0,0,69.827,78.132Z" fill="#ef708b"/>
      <path d="M62.855,71.161a1.748,1.748,0,0,0-2.474,0L46.212,85.33a1.75,1.75,0,0,0,2.475,2.475l14.168-14.17A1.748,1.748,0,0,0,62.855,71.161Z" fill="#ef708b"/>
      <path d="M55.885,64.189a1.751,1.751,0,0,0-2.475,0L39.241,78.359a1.749,1.749,0,1,0,2.474,2.474l14.17-14.169A1.751,1.751,0,0,0,55.885,64.189Z" fill="#ef708b"/>
    </g>
    <path d="M69.7,38.907h37.053a0,0,0,0,1,0,0v8a2.4,2.4,0,0,1-2.4,2.4H72.1a2.4,2.4,0,0,1-2.4-2.4v-8A0,0,0,0,1,69.7,38.907Z" transform="translate(119.426 137.678) rotate(-135)" fill="#95edf7"/>
    <path d="M58.591,38.626h9.358a0,0,0,0,1,0,0V52.731A4.679,4.679,0,0,1,63.27,57.41h0a4.679,4.679,0,0,1-4.679-4.679V38.626A0,0,0,0,1,58.591,38.626Z" transform="translate(-15.422 58.803) rotate(-45)" fill="#ef708b"/>
  </g>
</svg>
