<svg id="Icons" xmlns="http://www.w3.org/2000/svg" viewBox="0 0 512 512"><defs><style>.cls-1{fill:#0989d8;}.cls-2{fill:#29a3fb;}.cls-3{fill:#decee5;}.cls-4{fill:#f4e6f4;}.cls-5{fill:#f9f2f9;}.cls-6{fill:#e52e44;}.cls-7{fill:#fa4654;}</style></defs><title>50-Virus-Icons</title><path class="cls-1" d="M512,256c0,141.38-114.62,256-256,256C127.54,512,21.16,417.36,2.81,294A257.45,257.45,0,0,1,0,256C0,114.62,114.62,0,256,0,392.45,0,504,106.76,511.58,241.3,511.86,246.16,512,251.07,512,256Z"/><path class="cls-2" d="M512,256c0,141.38-114.62,256-256,256C127.54,512,21.16,417.36,2.81,294c1.51-.54,3-1.15,4.49-1.81,9.93-4.45,18.6-11.41,28.69-15.47a55.81,55.81,0,0,1,42.66.63C91.59,283,102.84,293.78,117,294.6c11.66.68,22.71-5.84,30.87-14.19S162,261.87,169,252.6c9.77-12.78,22.07-24.11,37-30s32.87-5.77,46.41,2.92c12.62,8.11,19.87,22.15,29.59,33.56,13.82,16.23,35.65,27.79,56.36,22.66,16.74-4.15,31.1-18.54,48.27-16.89s28.53,18.62,43.83,26.83c20.13,10.8,48,3.63,60.43-15.53,7.22-11.18,11.41-26.86,20.61-34.83C511.86,246.16,512,251.07,512,256Z"/><path class="cls-3" d="M249.62,96h-104a42.19,42.19,0,0,0-42.25,42.24V323.56A23.13,23.13,0,0,0,118,345.05l66.55,26.44a35.49,35.49,0,0,0,26.23,0l66.55-26.44a23.14,23.14,0,0,0,14.58-21.49V138.24A42.25,42.25,0,0,0,249.62,96Zm-52,45.28a14.47,14.47,0,1,1,14.46-14.47A14.47,14.47,0,0,1,197.63,141.28Z"/><path class="cls-4" d="M249.62,96h-104a42.19,42.19,0,0,0-16.51,3.34,42.1,42.1,0,0,0-7.38,23.86V308.52A23.12,23.12,0,0,0,136.32,330l66.55,26.45a35.58,35.58,0,0,0,26.23,0l61.11-24.29a23,23,0,0,0,1.66-8.6V138.24A42.25,42.25,0,0,0,249.62,96Zm-52,45.28a14.47,14.47,0,1,1,14.46-14.47A14.47,14.47,0,0,1,197.63,141.28Z"/><ellipse class="cls-5" cx="261.46" cy="129.3" rx="11.54" ry="25.77"/><ellipse class="cls-5" cx="261.46" cy="178.97" rx="8.7" ry="19.44"/><path class="cls-6" d="M273.5,225.28v0a10.27,10.27,0,0,0-10.25-9.73H132a10.27,10.27,0,0,0-10.25,9.73v0c0,.17,0,.34,0,.51v82.73A23.12,23.12,0,0,0,136.32,330L181,347.75a44.9,44.9,0,0,0,9.77,2.65v22.92a35.07,35.07,0,0,0,13.77,0V350.4a44.9,44.9,0,0,0,9.77-2.65L258.93,330a23.12,23.12,0,0,0,14.58-21.48V225.79C273.51,225.62,273.51,225.45,273.5,225.28Z"/><path class="cls-7" d="M273.5,225.26v0A10.26,10.26,0,0,1,263.25,235H132a10.26,10.26,0,0,1-10.25-9.72v0A10.27,10.27,0,0,1,132,215.53H263.25A10.27,10.27,0,0,1,273.5,225.26Z"/><ellipse class="cls-7" cx="256.2" cy="262.12" rx="11.03" ry="22.39"/><ellipse class="cls-7" cx="256.2" cy="302.97" rx="7.48" ry="15.18"/><path class="cls-5" d="M184.51,371.49h26.23a0,0,0,0,1,0,0V387.4a3.09,3.09,0,0,1-3.09,3.09H187.6a3.09,3.09,0,0,1-3.09-3.09V371.49A0,0,0,0,1,184.51,371.49Z"/><path class="cls-7" d="M270.92,451.9c-26.78,0-46.28-5.59-59.15-16.88-11.71-10.26-17.64-25.25-17.64-44.53h7c0,17.18,5.13,30.39,15.25,39.27,16,14,45.52,18.29,87.77,12.73,70-9.24,66.45-58.05,61-131.95-1.56-21.34-3.33-45.53-3.33-70.82,0-39.69,9.86-66.89,29.29-80.82,19.15-13.73,41.62-10.27,50.34-8.17a3.51,3.51,0,0,1,2.5,4.54h0a3.5,3.5,0,0,1-4.12,2.3c-7.62-1.79-28-4.95-44.69,7.06-17.46,12.55-26.32,37.82-26.32,75.09,0,25,1.76,49.09,3.32,70.31,2.72,37.24,5.07,69.4-2.67,93.45-8.59,26.68-29.07,41.28-64.44,45.95A263.92,263.92,0,0,1,270.92,451.9Z"/></svg>